<svg xmlns="http://www.w3.org/2000/svg" width="260" height="260" viewBox="0 0 260 260" version="1.1">
	<path d="M 116 35.814 C 103.767 39.012, 94.345 46.742, 89.171 57.825 C 85.951 64.723, 85.116 77.584, 86.995 91.349 C 87.874 97.791, 87.903 100.497, 87.101 101.299 C 86.496 101.904, 86.011 104.222, 86.024 106.450 C 86.060 112.291, 90.514 127.105, 92.788 128.946 C 94.051 129.968, 95.317 133.410, 96.484 139 C 97.460 143.675, 99.585 150.317, 101.206 153.760 C 103.946 159.578, 104.154 160.846, 104.154 171.738 C 104.154 182.531, 103.984 183.595, 101.999 185.202 C 99.285 187.400, 92.495 189.375, 78.567 192.019 C 59.182 195.699, 43.958 204.009, 37.535 214.416 C 34.569 219.221, 34.493 219.667, 34.181 233.999 L 33.861 248.665 40.181 251.512 C 52.384 257.010, 51.705 256.969, 130 256.969 C 208.295 256.969, 207.616 257.010, 219.819 251.512 L 226.139 248.665 225.819 233.999 C 225.507 219.667, 225.431 219.221, 222.465 214.416 C 216.042 204.009, 200.818 195.699, 181.433 192.019 C 167.505 189.375, 160.715 187.400, 158.001 185.202 C 156.016 183.595, 155.846 182.531, 155.846 171.738 C 155.846 160.805, 156.047 159.595, 158.835 153.694 C 160.478 150.215, 162.638 143.579, 163.633 138.946 C 164.799 133.519, 166.182 129.807, 167.521 128.511 C 168.663 127.405, 168.877 127.052, 167.995 127.727 C 166.636 128.768, 165.488 128.038, 160.446 122.933 C 155.893 118.322, 154.031 117.055, 152.500 117.523 C 145.585 119.641, 142.608 119.972, 139.063 119.017 C 133.867 117.618, 130.102 114.436, 127.896 109.579 C 122.478 97.649, 130.485 84.714, 143.288 84.714 C 149.642 84.714, 153.972 86.786, 157.622 91.571 C 161.141 96.184, 162.009 104.148, 159.518 108.965 L 157.816 112.256 163.627 118.128 C 166.823 121.358, 169.734 124, 170.097 124 C 171.165 124, 174 111.467, 174 106.744 C 174 104.355, 173.504 101.904, 172.899 101.299 C 172.097 100.497, 172.126 97.791, 173.005 91.349 C 174.889 77.547, 174.050 64.726, 170.809 57.782 C 167.503 50.699, 160.599 43.188, 154.187 39.699 C 143.972 34.139, 128.451 32.560, 116 35.814 M 139.643 89.028 C 131.855 91.362, 127.741 100.731, 131.398 107.802 C 135.926 116.560, 146.706 118.092, 153.548 110.950 C 156.132 108.253, 156.500 107.137, 156.500 102 C 156.500 96.867, 156.131 95.746, 153.557 93.059 C 151.938 91.370, 149.013 89.543, 147.057 88.999 C 143.041 87.884, 143.468 87.882, 139.643 89.028 M 143.160 97.750 C 143.017 100.659, 142.685 101, 140 101 C 138.350 101, 137 101.450, 137 102 C 137 102.550, 138.321 103, 139.937 103 C 142.500 103, 142.924 103.413, 143.277 106.250 L 143.680 109.500 143.840 106.250 C 143.989 103.233, 144.251 103, 147.500 103 C 149.425 103, 151 102.550, 151 102 C 151 101.450, 149.454 101, 147.563 101 C 144.436 101, 144.090 100.708, 143.723 97.750 L 143.320 94.500 143.160 97.750" stroke="none" fill="black" fill-rule="evenodd"/>
</svg>